Coordinates
version=1
nRows=6
nColumns=36
inDegrees=yes

Units are S.I. units (second, meters, Newtons, ...)
If the header above contains a line with 'inDegrees', this indicates whether rotational values are in degrees (yes) or radians (no).

endheader
time	pelvis_tilt	pelvis_list	pelvis_rotation	pelvis_tx	pelvis_ty	pelvis_tz	hip_flexion_r	hip_adduction_r	hip_rotation_r	knee_angle_r	knee_angle_r_beta	ankle_angle_r	subtalar_angle_r	mtp_angle_r	hip_flexion_l	hip_adduction_l	hip_rotation_l	knee_angle_l	knee_angle_l_beta	ankle_angle_l	subtalar_angle_l	mtp_angle_l	lumbar_extension	lumbar_bending	lumbar_rotation	arm_flex_r	arm_add_r	arm_rot_r	elbow_flex_r	pro_sup_r	arm_flex_l	arm_add_l	arm_rot_l	elbow_flex_l	pro_sup_l
     30.26666670	     -0.68489621	      4.81713266	     -2.02593686	      0.73088328	      1.03939303	      0.82692320	     16.41915281	     -5.17350973	      6.15681851	     61.46171630	      1.07270931	     -7.40072640	    -13.77540219	     -7.49999987	     11.51729553	      4.14926809	     -5.15661911	     22.67283816	      0.39571568	     10.54932077	     -3.76520508	     -7.49999987	     -9.30459845	     -2.07102124	      4.15585362	      2.07070378	     -9.50559340	      2.04215182	     18.56185509	     68.74449992	      4.39605068	     -8.58260312	     -1.19320152	     21.18114141	     69.28491212
     30.28333330	     -1.11188660	      4.33809009	     -1.81842379	      0.72964763	      1.04308675	      0.82658895	     18.72417315	     -4.57095452	      5.99562144	     59.15847330	      1.03251014	     -3.16138859	    -14.07115424	     -7.49999987	     10.02406077	      3.74421234	     -5.59606956	     21.41225540	      0.37371436	     11.27542804	     -2.72672084	     -7.49999987	     -9.19420313	     -1.35054170	      3.37576499	      1.61255259	     -9.43177064	      1.91428241	     17.80458634	     68.59109103	      5.85195152	     -8.72510956	     -1.34069287	     22.67544502	     69.23251736
     30.30000000	     -1.63601051	      3.78582954	     -1.54510017	      0.72963814	      1.04359212	      0.82609178	     20.79365324	     -4.03430239	      5.49598573	     56.00297870	      0.97743637	      0.21014811	    -13.89677767	     -7.49999987	      8.66071789	      3.27008801	     -5.86057119	     20.15949749	      0.35184961	     11.90470237	     -1.71361115	     -7.49999987	     -8.90506055	     -0.53608304	      2.64003712	      1.05205622	     -9.47288958	      1.68589487	     17.02754386	     68.47204278	      7.23646667	     -8.96054529	     -1.61021642	     24.37540087	     69.23488656
     30.31666670	     -2.17988462	      3.26605485	     -1.27109937	      0.72980078	      1.04144015	      0.82398024	     22.57263827	     -3.64298941	      4.74373020	     52.20513162	      0.91115143	      2.78752611	    -13.41437843	     -7.49999987	      7.35685836	      2.83180342	     -6.07988184	     18.92417195	      0.33028911	     12.38299854	     -0.72029852	     -7.49999987	     -8.38344887	      0.25965416	      1.96289752	      0.43679752	     -9.66090883	      1.40273507	     16.13727236	     68.40348309	      8.67584828	     -9.15745498	     -1.84646316	     26.26975964	     69.31436385
     30.33333330	     -2.60719328	      2.90468394	     -1.07685361	      0.72780680	      1.03980815	      0.82105793	     23.96136622	     -3.47014736	      3.87796528	     47.74585939	      0.83332245	      5.04761086	    -12.23829341	     -7.49999987	      5.97016605	      2.53710090	     -6.45153508	     17.66055156	      0.30823477	     12.94476231	      0.61192839	     -7.49999987	     -8.08130468	      0.84165311	      0.73104697	      0.48195221	     -9.66768275	     -0.08631581	     15.06611418	     68.50830721	      9.29378521	     -9.46660946	     -3.88934925	     29.95367005	     70.12916443
     30.35000000	     -3.21792114	      2.60606765	     -0.70979507	      0.72183193	      1.03977732	      0.81811995	     25.35321508	     -3.42845828	      2.84228426	     42.64809694	      0.74434971	      6.74784668	    -10.59929406	     -7.49999987	      4.86805124	      2.36405483	     -6.57826222	     16.30663683	      0.28460450	     13.49748144	      1.66574611	     -7.49999987	     -7.63360498	      1.31067317	      0.19808790	      0.10752418	     -9.96717379	     -0.50193541	     14.72816801	     68.55910649	     10.78194771	     -9.83678082	     -3.44396074	     32.55005097	     70.51965698
